<svg width="192" height="192" viewBox="0 0 192 192" fill="none" xmlns="http://www.w3.org/2000/svg">
<rect width="192" height="192" fill="black"/>
<path d="M66.786 61.341C68.1834 59.3384 71.1491 59.34 72.5463 61.3427L91.9616 89.0835C92.3837 89.6865 92.1137 90.5258 91.4213 90.7757C85.4089 92.9462 81.8547 94.5821 81.3486 97.8208C80.5332 103.04 92.255 105.721 92.255 112.462C92.255 118.256 83.9118 125.391 66.813 130.42C60.8365 132.178 54.5789 132.703 48.3493 132.703H17L66.786 61.341Z" fill="white"/>
<path d="M119.454 61.342C120.851 59.3391 123.817 59.3391 125.214 61.342L175 132.701L112.124 132.702C111.549 132.702 111.302 131.918 111.742 131.549C121.472 123.366 119.322 106.004 98.4265 99.0949C95.1819 98.022 94.7861 96.5461 95.9921 94.946L119.454 61.342Z" fill="white"/>
</svg>
