<svg width="333" height="206" viewBox="0 0 333 206" fill="none" xmlns="http://www.w3.org/2000/svg">
<path d="M106.206 3.11854C109.109 -1.0417 115.27 -1.03851 118.173 3.1221L158.508 60.7528C159.385 62.0057 158.824 63.7492 157.386 64.2684C144.895 68.7775 137.511 72.176 136.46 78.9044C134.766 89.7462 159.118 95.3177 159.118 109.322C159.118 121.357 141.785 136.181 106.262 146.628C93.846 150.28 80.846 151.371 67.904 151.371H2.77637L106.206 3.11854Z" fill="white"/>
<path d="M215.62 3.1206C218.523 -1.0402 224.684 -1.0402 227.587 3.1206L331.016 151.366L200.392 151.37C199.198 151.37 198.686 149.741 199.6 148.973C219.813 131.973 215.346 95.9051 171.936 81.5512C165.196 79.3224 164.373 76.2562 166.879 72.9321L215.62 3.1206Z" fill="white"/>
<path d="M278.509 205.676C277.828 205.676 277.33 205.567 277.014 205.35C276.697 205.156 276.503 204.89 276.43 204.552C276.357 204.214 276.32 203.839 276.32 203.428V182.511C276.32 181.689 276.478 181.121 276.795 180.807C277.135 180.493 277.743 180.336 278.619 180.336H292.848C293.261 180.336 293.626 180.384 293.942 180.481C294.283 180.553 294.55 180.746 294.745 181.061C294.939 181.351 295.037 181.846 295.037 182.547C295.037 183.224 294.927 183.719 294.708 184.033C294.514 184.347 294.246 184.541 293.906 184.613C293.59 184.686 293.225 184.722 292.811 184.722H280.735V190.812H289.053C289.467 190.812 289.82 190.861 290.111 190.957C290.403 191.03 290.634 191.199 290.805 191.465C290.975 191.731 291.06 192.178 291.06 192.806C291.06 193.411 290.975 193.858 290.805 194.148C290.634 194.413 290.391 194.583 290.075 194.655C289.759 194.704 289.394 194.728 288.98 194.728H280.735V201.253H292.848C293.261 201.253 293.626 201.301 293.942 201.398C294.283 201.471 294.55 201.664 294.745 201.978C294.939 202.292 295.037 202.788 295.037 203.464C295.037 204.141 294.927 204.637 294.708 204.951C294.514 205.265 294.246 205.458 293.906 205.531C293.59 205.627 293.225 205.676 292.811 205.676H278.509Z" fill="white"/>
<path d="M240.436 205.676C239.731 205.676 239.22 205.567 238.904 205.35C238.588 205.156 238.381 204.89 238.284 204.552C238.211 204.214 238.174 203.851 238.174 203.464V182.547C238.174 182.136 238.211 181.761 238.284 181.423C238.381 181.085 238.576 180.819 238.868 180.626C239.184 180.432 239.694 180.336 240.4 180.336C241.081 180.336 241.567 180.432 241.859 180.626C242.175 180.819 242.37 181.085 242.443 181.423C242.54 181.761 242.589 182.136 242.589 182.547V201.761H253.717C254.082 201.761 254.41 201.797 254.702 201.869C254.994 201.918 255.225 202.087 255.395 202.377C255.565 202.643 255.65 203.078 255.65 203.682C255.65 204.286 255.565 204.733 255.395 205.023C255.225 205.289 254.994 205.458 254.702 205.531C254.41 205.627 254.082 205.676 253.717 205.676H240.436Z" fill="white"/>
<path d="M214.4 205.676C213.719 205.676 213.22 205.567 212.904 205.35C212.588 205.156 212.393 204.89 212.32 204.552C212.247 204.214 212.211 203.839 212.211 203.428V182.511C212.211 182.124 212.247 181.761 212.32 181.423C212.418 181.085 212.612 180.819 212.904 180.626C213.22 180.432 213.731 180.336 214.437 180.336C215.118 180.336 215.604 180.432 215.896 180.626C216.212 180.819 216.407 181.085 216.48 181.423C216.577 181.761 216.626 182.136 216.626 182.547V203.464C216.626 203.875 216.577 204.25 216.48 204.588C216.407 204.902 216.212 205.156 215.896 205.35C215.58 205.567 215.081 205.676 214.4 205.676Z" fill="white"/>
<path d="M167.069 205.64C166.437 205.64 165.962 205.543 165.646 205.35C165.33 205.156 165.123 204.89 165.026 204.552C164.953 204.214 164.917 203.839 164.917 203.428V182.511C164.917 182.124 164.953 181.774 165.026 181.459C165.123 181.121 165.33 180.855 165.646 180.662C165.962 180.444 166.461 180.336 167.142 180.336C167.653 180.336 168.03 180.372 168.273 180.444C168.541 180.493 168.747 180.577 168.893 180.698C169.039 180.795 169.185 180.928 169.331 181.097L178.233 193.459H177.394L186.333 181.061C186.503 180.867 186.673 180.722 186.844 180.626C187.014 180.529 187.233 180.456 187.5 180.408C187.768 180.36 188.121 180.336 188.558 180.336C189.215 180.336 189.702 180.444 190.018 180.662C190.334 180.855 190.529 181.121 190.602 181.459C190.699 181.798 190.747 182.172 190.747 182.583V203.501C190.747 203.863 190.699 204.214 190.602 204.552C190.529 204.89 190.334 205.156 190.018 205.35C189.702 205.543 189.203 205.64 188.522 205.64C187.865 205.64 187.379 205.531 187.063 205.313C186.746 205.12 186.54 204.854 186.442 204.516C186.369 204.177 186.333 203.815 186.333 203.428V187.876L179.693 197.41C179.62 197.507 179.51 197.64 179.364 197.809C179.218 197.954 179.024 198.087 178.781 198.208C178.537 198.329 178.209 198.389 177.796 198.389C177.406 198.389 177.09 198.329 176.847 198.208C176.604 198.087 176.409 197.954 176.263 197.809C176.142 197.664 176.02 197.519 175.898 197.374L169.295 187.876V203.501C169.295 203.863 169.246 204.214 169.149 204.552C169.076 204.89 168.881 205.156 168.565 205.35C168.249 205.543 167.75 205.64 167.069 205.64Z" fill="white"/>
<path d="M132.28 205.966C130.528 205.966 128.887 205.64 127.354 204.988C125.846 204.311 124.509 203.393 123.341 202.232C122.174 201.048 121.261 199.695 120.605 198.172C119.948 196.625 119.62 194.97 119.62 193.206C119.62 191.393 119.936 189.701 120.568 188.13C121.225 186.535 122.113 185.146 123.232 183.961C124.375 182.753 125.688 181.81 127.172 181.134C128.656 180.457 130.249 180.119 131.951 180.119C133.727 180.119 135.369 180.457 136.877 181.134C138.409 181.786 139.747 182.705 140.89 183.889C142.033 185.073 142.933 186.451 143.59 188.022C144.247 189.568 144.575 191.248 144.575 193.061C144.575 194.825 144.259 196.493 143.626 198.063C142.994 199.61 142.106 200.988 140.963 202.196C139.82 203.38 138.506 204.311 137.023 204.988C135.563 205.64 133.982 205.966 132.28 205.966ZM132.097 201.544C133.216 201.544 134.262 201.326 135.235 200.891C136.208 200.456 137.059 199.852 137.789 199.079C138.543 198.305 139.127 197.411 139.54 196.396C139.954 195.357 140.16 194.245 140.16 193.061C140.16 191.876 139.941 190.777 139.504 189.762C139.09 188.722 138.506 187.816 137.752 187.043C137.023 186.245 136.171 185.629 135.198 185.194C134.25 184.759 133.216 184.541 132.097 184.541C131.003 184.541 129.969 184.759 128.996 185.194C128.023 185.629 127.16 186.245 126.406 187.043C125.676 187.816 125.104 188.722 124.691 189.762C124.277 190.801 124.071 191.901 124.071 193.061C124.071 194.221 124.277 195.32 124.691 196.36C125.129 197.399 125.713 198.305 126.442 199.079C127.172 199.852 128.011 200.456 128.96 200.891C129.933 201.326 130.978 201.544 132.097 201.544Z" fill="white"/>
<path d="M85.2684 205.676C84.563 205.676 84.0522 205.567 83.736 205.35C83.4198 205.156 83.2131 204.89 83.1158 204.552C83.0428 204.214 83.0063 203.851 83.0063 203.464V182.547C83.0063 182.136 83.0428 181.761 83.1158 181.423C83.2131 181.085 83.4077 180.819 83.6996 180.626C84.0157 180.432 84.5265 180.336 85.2319 180.336C85.9129 180.336 86.3994 180.432 86.6913 180.626C87.0075 180.819 87.202 181.085 87.275 181.423C87.3723 181.761 87.421 182.136 87.421 182.547V201.761H98.5487C98.9135 201.761 99.2419 201.797 99.5338 201.869C99.8257 201.918 100.057 202.087 100.227 202.377C100.397 202.643 100.482 203.078 100.482 203.682C100.482 204.286 100.397 204.733 100.227 205.023C100.057 205.289 99.8257 205.458 99.5338 205.531C99.2419 205.627 98.9135 205.676 98.5487 205.676H85.2684Z" fill="white"/>
<path d="M50.224 205.966C48.4728 205.966 46.831 205.64 45.2987 204.988C43.7906 204.311 42.4529 203.393 41.2854 202.232C40.1179 201.048 39.2058 199.695 38.549 198.172C37.8923 196.625 37.564 194.97 37.564 193.206C37.564 191.393 37.8802 189.701 38.5126 188.13C39.1693 186.535 40.0571 185.146 41.1759 183.961C42.3191 182.753 43.6325 181.81 45.1162 181.134C46.5999 180.457 48.1931 180.119 49.8957 180.119C51.6713 180.119 53.3131 180.457 54.8211 181.134C56.3534 181.786 57.6912 182.705 58.8344 183.889C59.9775 185.073 60.8775 186.451 61.5342 188.022C62.1909 189.568 62.5193 191.248 62.5193 193.061C62.5193 194.825 62.2031 196.493 61.5707 198.063C60.9383 199.61 60.0505 200.988 58.9073 202.196C57.7642 203.38 56.4507 204.311 54.967 204.988C53.5076 205.64 51.9267 205.966 50.224 205.966ZM50.0416 201.544C51.1605 201.544 52.2064 201.326 53.1793 200.891C54.1522 200.456 55.0035 199.852 55.7332 199.079C56.4872 198.305 57.0709 197.411 57.4844 196.396C57.8979 195.357 58.1047 194.245 58.1047 193.061C58.1047 191.876 57.8858 190.777 57.448 189.762C57.0345 188.722 56.4507 187.816 55.6967 187.043C54.967 186.245 54.1157 185.629 53.1428 185.194C52.1942 184.759 51.1605 184.541 50.0416 184.541C48.9471 184.541 47.9134 184.759 46.9405 185.194C45.9675 185.629 45.1041 186.245 44.3501 187.043C43.6204 187.816 43.0488 188.722 42.6353 189.762C42.2218 190.801 42.0151 191.901 42.0151 193.061C42.0151 194.221 42.2218 195.32 42.6353 196.36C43.0731 197.399 43.6569 198.305 44.3865 199.079C45.1162 199.852 45.9554 200.456 46.904 200.891C47.8769 201.326 48.9228 201.544 50.0416 201.544Z" fill="white"/>
<path d="M9.07725 206.002C7.98271 206.002 6.98547 205.869 6.08553 205.603C5.2099 205.337 4.43157 204.999 3.75052 204.588C3.09381 204.177 2.53438 203.754 2.07224 203.319C1.61011 202.884 1.26959 202.486 1.05068 202.123C0.734482 201.688 0.527737 201.301 0.430445 200.963C0.333154 200.625 0.357477 200.298 0.503414 199.984C0.673675 199.646 0.977711 199.295 1.41552 198.933C1.85334 198.546 2.25467 198.353 2.61951 198.353C3.00868 198.329 3.37352 198.437 3.71404 198.679C4.07888 198.921 4.43157 199.259 4.77209 199.694C5.35584 200.468 6.01256 201.023 6.74225 201.362C7.47193 201.676 8.20162 201.833 8.93131 201.833C9.8799 201.833 10.7069 201.712 11.4122 201.471C12.1176 201.205 12.6649 200.818 13.054 200.31C13.4675 199.803 13.6743 199.15 13.6743 198.353C13.6743 197.7 13.4675 197.169 13.054 196.758C12.6649 196.323 12.1419 195.96 11.4852 195.67C10.8285 195.356 10.0866 195.078 9.25967 194.836C8.45701 194.571 7.64219 194.281 6.81521 193.966C6.23146 193.773 5.64771 193.543 5.06396 193.278C4.48021 192.988 3.93295 192.661 3.42217 192.299C2.93571 191.936 2.49789 191.513 2.10873 191.03C1.74388 190.522 1.45201 189.942 1.2331 189.29C1.0142 188.637 0.904742 187.876 0.904742 187.006C0.904742 185.628 1.24526 184.42 1.92631 183.381C2.60735 182.317 3.55594 181.484 4.77209 180.879C5.98823 180.251 7.37464 179.937 8.93131 179.937C9.92855 179.937 10.8163 180.033 11.5947 180.227C12.3973 180.396 13.0784 180.626 13.6378 180.916C14.2215 181.181 14.6958 181.459 15.0607 181.749C15.4499 182.015 15.7296 182.245 15.8998 182.438C16.4593 182.994 16.7633 183.465 16.8119 183.852C16.8849 184.215 16.666 184.71 16.1552 185.338C15.6444 185.991 15.1458 186.353 14.6594 186.426C14.1972 186.474 13.6743 186.281 13.0905 185.846C12.7014 185.435 12.3122 185.109 11.923 184.867C11.5339 184.601 11.0961 184.408 10.6096 184.287C10.1475 184.166 9.57587 184.106 8.89482 184.106C8.40837 184.106 7.93407 184.178 7.47193 184.323C7.03412 184.444 6.65711 184.637 6.34092 184.903C6.02472 185.145 5.76933 185.447 5.57474 185.81C5.40448 186.172 5.31935 186.583 5.31935 187.042C5.31935 187.671 5.48961 188.19 5.83014 188.601C6.19498 188.988 6.68144 189.314 7.28951 189.58C7.89758 189.822 8.57863 190.051 9.33264 190.269C10.0866 190.486 10.8528 190.716 11.6312 190.957C12.4338 191.223 13.2243 191.537 14.0026 191.9C14.781 192.263 15.4742 192.722 16.0822 193.278C16.6903 193.809 17.1768 194.486 17.5416 195.308C17.9065 196.105 18.0889 197.084 18.0889 198.244C18.0889 199.573 17.8335 200.733 17.3227 201.724C16.8119 202.715 16.1187 203.525 15.2431 204.153C14.3675 204.782 13.3946 205.241 12.3244 205.531C11.2541 205.845 10.1718 206.002 9.07725 206.002Z" fill="white"/>
<path d="M323.902 206.002C322.808 206.002 321.811 205.869 320.911 205.603C320.035 205.337 319.257 204.999 318.576 204.588C317.919 204.177 317.36 203.754 316.897 203.319C316.435 202.884 316.095 202.486 315.876 202.123C315.56 201.688 315.353 201.301 315.256 200.963C315.158 200.625 315.183 200.298 315.329 199.984C315.499 199.646 315.803 199.295 316.241 198.933C316.679 198.546 317.08 198.353 317.445 198.353C317.834 198.329 318.199 198.437 318.539 198.679C318.904 198.921 319.257 199.259 319.597 199.694C320.181 200.468 320.838 201.023 321.567 201.362C322.297 201.676 323.027 201.833 323.757 201.833C324.705 201.833 325.532 201.712 326.237 201.471C326.943 201.205 327.49 200.818 327.879 200.31C328.293 199.803 328.499 199.15 328.499 198.353C328.499 197.7 328.293 197.169 327.879 196.758C327.49 196.323 326.967 195.96 326.31 195.67C325.654 195.356 324.912 195.078 324.085 194.836C323.282 194.571 322.467 194.281 321.64 193.966C321.057 193.773 320.473 193.543 319.889 193.278C319.305 192.988 318.758 192.661 318.247 192.299C317.761 191.936 317.323 191.513 316.934 191.03C316.569 190.522 316.277 189.942 316.058 189.29C315.839 188.637 315.73 187.876 315.73 187.006C315.73 185.628 316.07 184.42 316.752 183.381C317.433 182.317 318.381 181.484 319.597 180.879C320.813 180.251 322.2 179.937 323.757 179.937C324.754 179.937 325.642 180.033 326.42 180.227C327.223 180.396 327.904 180.626 328.463 180.916C329.047 181.181 329.521 181.459 329.886 181.749C330.275 182.015 330.555 182.245 330.725 182.438C331.284 182.994 331.588 183.465 331.637 183.852C331.71 184.215 331.491 184.71 330.98 185.338C330.47 185.991 329.971 186.353 329.485 186.426C329.022 186.474 328.499 186.281 327.916 185.846C327.527 185.435 327.137 185.109 326.748 184.867C326.359 184.601 325.921 184.408 325.435 184.287C324.973 184.166 324.401 184.106 323.72 184.106C323.234 184.106 322.759 184.178 322.297 184.323C321.859 184.444 321.482 184.637 321.166 184.903C320.85 185.145 320.595 185.447 320.4 185.81C320.23 186.172 320.145 186.583 320.145 187.042C320.145 187.671 320.315 188.19 320.655 188.601C321.02 188.988 321.507 189.314 322.115 189.58C322.723 189.822 323.404 190.051 324.158 190.269C324.912 190.486 325.678 190.716 326.456 190.957C327.259 191.223 328.05 191.537 328.828 191.9C329.606 192.263 330.299 192.722 330.907 193.278C331.516 193.809 332.002 194.486 332.367 195.308C332.732 196.105 332.914 197.084 332.914 198.244C332.914 199.573 332.659 200.733 332.148 201.724C331.637 202.715 330.944 203.525 330.068 204.153C329.193 204.782 328.22 205.241 327.15 205.531C326.079 205.845 324.997 206.002 323.902 206.002Z" fill="white"/>
</svg>
