<svg width="372" height="34" viewBox="0 0 372 34" fill="none" xmlns="http://www.w3.org/2000/svg">
<path d="M23.6328 0.700462C24.2961 -0.233979 25.7039 -0.233262 26.3672 0.701262L35.5834 13.6458C35.7837 13.9272 35.6555 14.3188 35.3269 14.4355C32.4729 15.4483 30.7857 16.2116 30.5455 17.7229C30.1585 20.1581 35.7226 21.4095 35.7226 24.555C35.7226 27.2583 31.7622 30.5879 23.6456 32.9345C20.8086 33.7547 17.8382 33.9998 14.8811 33.9998H0L23.6328 0.700462Z" fill="white"/>
<path d="M48.6332 0.700925C49.2965 -0.233642 50.7043 -0.233641 51.3676 0.700925L75.0004 33.9987L45.1538 33.9995C44.881 33.9995 44.7639 33.6337 44.9727 33.4611C49.5912 29.6428 48.5707 21.5415 38.6519 18.3174C37.1117 17.8168 36.9238 17.1281 37.4963 16.3814L48.6332 0.700925Z" fill="white"/>
<path d="M327.822 27.3815C327.269 27.3815 326.864 27.2926 326.608 27.1149C326.351 26.9569 326.193 26.7397 326.134 26.4632C326.075 26.1867 326.045 25.8806 326.045 25.5449V8.45309C326.045 7.78166 326.173 7.31759 326.43 7.06087C326.706 6.80415 327.2 6.67578 327.911 6.67578H339.464C339.799 6.67578 340.096 6.71528 340.352 6.79427C340.629 6.85351 340.846 7.0115 341.004 7.26822C341.162 7.50519 341.241 7.91002 341.241 8.48271C341.241 9.03565 341.152 9.44048 340.974 9.6972C340.816 9.95393 340.599 10.1119 340.323 10.1712C340.066 10.2304 339.77 10.26 339.434 10.26H329.629V15.2365H336.383C336.719 15.2365 337.005 15.276 337.242 15.355C337.479 15.4142 337.667 15.5525 337.805 15.7697C337.943 15.9869 338.012 16.3523 338.012 16.8657C338.012 17.3594 337.943 17.7247 337.805 17.9617C337.667 18.1789 337.469 18.3172 337.212 18.3764C336.956 18.4159 336.659 18.4357 336.324 18.4357H329.629V23.7676H339.464C339.799 23.7676 340.096 23.8071 340.352 23.8861C340.629 23.9454 340.846 24.1033 341.004 24.36C341.162 24.6168 341.241 25.0216 341.241 25.5746C341.241 26.1275 341.152 26.5323 340.974 26.789C340.816 27.0458 340.599 27.2038 340.323 27.263C340.066 27.342 339.77 27.3815 339.434 27.3815H327.822Z" fill="white"/>
<path d="M364.677 27.6497C363.788 27.6497 362.979 27.5411 362.248 27.3239C361.537 27.1067 360.905 26.8302 360.352 26.4945C359.819 26.1587 359.365 25.8132 358.99 25.4577C358.615 25.1022 358.338 24.7764 358.16 24.4802C357.904 24.1247 357.736 23.8087 357.657 23.5323C357.578 23.2558 357.598 22.9892 357.716 22.7325C357.854 22.456 358.101 22.1697 358.457 21.8734C358.812 21.5575 359.138 21.3995 359.434 21.3995C359.75 21.3797 360.046 21.4686 360.323 21.6661C360.619 21.8636 360.905 22.14 361.182 22.4955C361.656 23.1274 362.189 23.5816 362.781 23.8581C363.374 24.1148 363.966 24.2432 364.559 24.2432C365.329 24.2432 366 24.1445 366.573 23.947C367.146 23.7297 367.59 23.4138 367.906 22.9991C368.242 22.5844 368.41 22.0512 368.41 21.3995C368.41 20.8663 368.242 20.4318 367.906 20.0961C367.59 19.7407 367.165 19.4444 366.632 19.2075C366.099 18.9508 365.497 18.7236 364.825 18.5262C364.174 18.3089 363.512 18.072 362.841 17.8152C362.367 17.6573 361.893 17.4697 361.419 17.2524C360.945 17.0155 360.5 16.7489 360.086 16.4526C359.691 16.1564 359.335 15.8108 359.019 15.4159C358.723 15.0012 358.486 14.5272 358.308 13.994C358.131 13.4608 358.042 12.8388 358.042 12.1278C358.042 11.0022 358.318 10.0148 358.871 9.16565C359.424 8.29674 360.194 7.61543 361.182 7.12173C362.169 6.60829 363.295 6.35156 364.559 6.35156C365.368 6.35156 366.089 6.43056 366.721 6.58855C367.373 6.72678 367.926 6.91438 368.38 7.15135C368.854 7.36858 369.239 7.59568 369.535 7.83266C369.851 8.04988 370.078 8.23749 370.216 8.39548C370.671 8.84968 370.917 9.23477 370.957 9.55074C371.016 9.84695 370.838 10.2518 370.424 10.7652C370.009 11.2984 369.604 11.5946 369.209 11.6539C368.834 11.6934 368.41 11.5354 367.936 11.1799C367.62 10.8442 367.304 10.5776 366.988 10.3801C366.672 10.1629 366.316 10.0049 365.921 9.90619C365.546 9.80745 365.082 9.75809 364.529 9.75809C364.134 9.75809 363.749 9.81733 363.374 9.93582C363.018 10.0346 362.712 10.1925 362.456 10.4098C362.199 10.6073 361.991 10.8541 361.833 11.1503C361.695 11.4465 361.626 11.7822 361.626 12.1575C361.626 12.6709 361.764 13.0955 362.041 13.4312C362.337 13.7472 362.732 14.0138 363.226 14.231C363.719 14.4285 364.272 14.6161 364.885 14.7938C365.497 14.9715 366.119 15.1591 366.751 15.3566C367.402 15.5739 368.044 15.8306 368.676 16.1268C369.308 16.423 369.871 16.7982 370.365 17.2524C370.858 17.6869 371.253 18.2398 371.549 18.9113C371.846 19.5629 371.994 20.3627 371.994 21.3106C371.994 22.3968 371.786 23.3447 371.372 24.1543C370.957 24.964 370.394 25.6255 369.683 26.139C368.972 26.6524 368.182 27.0277 367.313 27.2646C366.445 27.5214 365.566 27.6497 364.677 27.6497Z" fill="white"/>
<path d="M296.911 27.3815C296.338 27.3815 295.923 27.2926 295.667 27.1149C295.41 26.9569 295.242 26.7397 295.163 26.4632C295.104 26.1867 295.074 25.8905 295.074 25.5746V8.48271C295.074 8.147 295.104 7.84091 295.163 7.56444C295.242 7.28797 295.4 7.07073 295.637 6.91275C295.894 6.75477 296.308 6.67578 296.881 6.67578C297.434 6.67578 297.829 6.75477 298.066 6.91275C298.323 7.07073 298.481 7.28797 298.54 7.56444C298.619 7.84091 298.658 8.147 298.658 8.48271V24.1823H307.693C307.989 24.1823 308.256 24.2119 308.493 24.2712C308.73 24.3107 308.918 24.4489 309.056 24.6859C309.194 24.9031 309.263 25.2586 309.263 25.7523C309.263 26.246 309.194 26.6113 309.056 26.8483C308.918 27.0655 308.73 27.2038 308.493 27.263C308.256 27.342 307.989 27.3815 307.693 27.3815H296.911Z" fill="white"/>
<path d="M275.771 27.3815C275.219 27.3815 274.814 27.2926 274.557 27.1149C274.3 26.9569 274.142 26.7397 274.083 26.4632C274.024 26.1867 273.994 25.8806 273.994 25.5449V8.45309C273.994 8.13713 274.024 7.84091 274.083 7.56444C274.162 7.28797 274.32 7.07073 274.557 6.91275C274.814 6.75477 275.228 6.67578 275.801 6.67578C276.354 6.67578 276.749 6.75477 276.986 6.91275C277.243 7.07073 277.401 7.28797 277.46 7.56444C277.539 7.84091 277.578 8.147 277.578 8.48271V25.5746C277.578 25.9103 277.539 26.2164 277.46 26.4928C277.401 26.7496 277.243 26.9569 276.986 27.1149C276.729 27.2926 276.324 27.3815 275.771 27.3815Z" fill="white"/>
<path d="M237.343 27.3519C236.83 27.3519 236.445 27.2729 236.188 27.1149C235.931 26.9569 235.764 26.7397 235.685 26.4632C235.625 26.1867 235.596 25.8806 235.596 25.5449V8.45309C235.596 8.13713 235.625 7.85078 235.685 7.59406C235.764 7.31758 235.931 7.10035 236.188 6.94237C236.445 6.76464 236.85 6.67578 237.403 6.67578C237.817 6.67578 238.123 6.70541 238.321 6.76465C238.538 6.80414 238.706 6.87326 238.824 6.972C238.943 7.05099 239.061 7.1596 239.18 7.29784L246.408 17.3989H245.726L252.984 7.26822C253.122 7.11024 253.26 6.99174 253.398 6.91275C253.537 6.83376 253.714 6.77451 253.932 6.73502C254.149 6.69552 254.435 6.67578 254.791 6.67578C255.324 6.67578 255.719 6.76464 255.976 6.94237C256.232 7.10035 256.39 7.31758 256.45 7.59406C256.529 7.87053 256.568 8.17661 256.568 8.51233V25.6042C256.568 25.9004 256.529 26.1867 256.45 26.4632C256.39 26.7397 256.232 26.9569 255.976 27.1149C255.719 27.2729 255.314 27.3519 254.761 27.3519C254.228 27.3519 253.833 27.263 253.576 27.0853C253.319 26.9273 253.152 26.71 253.073 26.4336C253.013 26.1571 252.984 25.8609 252.984 25.5449V12.8371L247.593 20.6277C247.533 20.7067 247.444 20.8153 247.326 20.9535C247.207 21.072 247.049 21.1806 246.852 21.2794C246.655 21.3781 246.388 21.4275 246.052 21.4275C245.736 21.4275 245.48 21.3781 245.282 21.2794C245.085 21.1806 244.927 21.072 244.808 20.9535C244.709 20.835 244.611 20.7166 244.512 20.5981L239.15 12.8371V25.6042C239.15 25.9004 239.111 26.1867 239.032 26.4632C238.973 26.7397 238.815 26.9569 238.558 27.1149C238.301 27.2729 237.896 27.3519 237.343 27.3519Z" fill="white"/>
<path d="M209.097 27.6204C207.675 27.6204 206.342 27.3538 205.098 26.8206C203.874 26.2677 202.788 25.5173 201.84 24.5694C200.892 23.6017 200.151 22.4958 199.618 21.2517C199.085 19.9878 198.818 18.6351 198.818 17.1935C198.818 15.7124 199.075 14.33 199.589 13.0464C200.122 11.7431 200.843 10.6076 201.751 9.63992C202.679 8.65253 203.745 7.88235 204.95 7.32941C206.155 6.77646 207.448 6.5 208.831 6.5C210.272 6.5 211.605 6.77646 212.83 7.32941C214.074 7.8626 215.16 8.61302 216.088 9.58067C217.016 10.5483 217.747 11.6739 218.28 12.9576C218.813 14.2214 219.08 15.5939 219.08 17.075C219.08 18.5166 218.823 19.8792 218.31 21.1628C217.796 22.4267 217.075 23.5523 216.147 24.5397C215.219 25.5074 214.153 26.2677 212.948 26.8206C211.763 27.3538 210.48 27.6204 209.097 27.6204ZM208.949 24.0065C209.857 24.0065 210.707 23.8288 211.497 23.4733C212.286 23.1179 212.978 22.6242 213.57 21.9922C214.182 21.3603 214.656 20.6296 214.992 19.8002C215.328 18.9511 215.495 18.0427 215.495 17.075C215.495 16.1074 215.318 15.2088 214.962 14.3794C214.627 13.5303 214.153 12.7897 213.54 12.1578C212.948 11.5061 212.257 11.0025 211.467 10.6471C210.697 10.2916 209.857 10.1139 208.949 10.1139C208.06 10.1139 207.221 10.2916 206.431 10.6471C205.641 11.0025 204.94 11.5061 204.328 12.1578C203.736 12.7897 203.272 13.5303 202.936 14.3794C202.6 15.2286 202.432 16.1271 202.432 17.075C202.432 18.0229 202.6 18.9215 202.936 19.7706C203.291 20.6198 203.765 21.3603 204.358 21.9922C204.95 22.6242 205.631 23.1179 206.402 23.4733C207.191 23.8288 208.041 24.0065 208.949 24.0065Z" fill="white"/>
<path d="M170.928 27.3815C170.356 27.3815 169.941 27.2926 169.684 27.1149C169.428 26.9569 169.26 26.7397 169.181 26.4632C169.121 26.1867 169.092 25.8905 169.092 25.5746V8.48271C169.092 8.147 169.121 7.84091 169.181 7.56444C169.26 7.28797 169.418 7.07073 169.655 6.91275C169.911 6.75477 170.326 6.67578 170.899 6.67578C171.452 6.67578 171.847 6.75477 172.084 6.91275C172.34 7.07073 172.498 7.28797 172.558 7.56444C172.637 7.84091 172.676 8.147 172.676 8.48271V24.1823H181.711C182.007 24.1823 182.274 24.2119 182.511 24.2712C182.747 24.3107 182.935 24.4489 183.073 24.6859C183.212 24.9031 183.281 25.2586 183.281 25.7523C183.281 26.246 183.212 26.6113 183.073 26.8483C182.935 27.0655 182.747 27.2038 182.511 27.263C182.274 27.342 182.007 27.3815 181.711 27.3815H170.928Z" fill="white"/>
<path d="M142.476 27.6204C141.054 27.6204 139.721 27.3538 138.477 26.8206C137.253 26.2677 136.167 25.5173 135.219 24.5694C134.271 23.6017 133.53 22.4958 132.997 21.2517C132.464 19.9878 132.197 18.6351 132.197 17.1935C132.197 15.7124 132.454 14.33 132.967 13.0464C133.501 11.7431 134.221 10.6076 135.13 9.63992C136.058 8.65253 137.124 7.88235 138.329 7.32941C139.534 6.77646 140.827 6.5 142.209 6.5C143.651 6.5 144.984 6.77646 146.208 7.32941C147.453 7.8626 148.539 8.61302 149.467 9.58067C150.395 10.5483 151.126 11.6739 151.659 12.9576C152.192 14.2214 152.459 15.5939 152.459 17.075C152.459 18.5166 152.202 19.8792 151.688 21.1628C151.175 22.4267 150.454 23.5523 149.526 24.5397C148.598 25.5074 147.532 26.2677 146.327 26.8206C145.142 27.3538 143.858 27.6204 142.476 27.6204ZM142.328 24.0065C143.236 24.0065 144.086 23.8288 144.875 23.4733C145.665 23.1179 146.357 22.6242 146.949 21.9922C147.561 21.3603 148.035 20.6296 148.371 19.8002C148.707 18.9511 148.874 18.0427 148.874 17.075C148.874 16.1074 148.697 15.2088 148.341 14.3794C148.005 13.5303 147.532 12.7897 146.919 12.1578C146.327 11.5061 145.636 11.0025 144.846 10.6471C144.076 10.2916 143.236 10.1139 142.328 10.1139C141.439 10.1139 140.6 10.2916 139.81 10.6471C139.02 11.0025 138.319 11.5061 137.707 12.1578C137.114 12.7897 136.65 13.5303 136.315 14.3794C135.979 15.2286 135.811 16.1271 135.811 17.075C135.811 18.0229 135.979 18.9215 136.315 19.7706C136.67 20.6198 137.144 21.3603 137.737 21.9922C138.329 22.6242 139.01 23.1179 139.78 23.4733C140.57 23.8288 141.42 24.0065 142.328 24.0065Z" fill="white"/>
<path d="M109.068 27.6497C108.179 27.6497 107.369 27.5411 106.639 27.3239C105.928 27.1067 105.296 26.8302 104.743 26.4945C104.21 26.1587 103.756 25.8132 103.38 25.4577C103.005 25.1022 102.729 24.7764 102.551 24.4802C102.294 24.1247 102.126 23.8087 102.047 23.5323C101.968 23.2558 101.988 22.9892 102.107 22.7325C102.245 22.456 102.492 22.1697 102.847 21.8734C103.203 21.5575 103.528 21.3995 103.825 21.3995C104.141 21.3797 104.437 21.4686 104.713 21.6661C105.01 21.8636 105.296 22.14 105.572 22.4955C106.046 23.1274 106.58 23.5816 107.172 23.8581C107.764 24.1148 108.357 24.2432 108.949 24.2432C109.719 24.2432 110.391 24.1445 110.964 23.947C111.536 23.7297 111.981 23.4138 112.297 22.9991C112.632 22.5844 112.8 22.0512 112.8 21.3995C112.8 20.8663 112.632 20.4318 112.297 20.0961C111.981 19.7407 111.556 19.4444 111.023 19.2075C110.49 18.9508 109.887 18.7236 109.216 18.5262C108.564 18.3089 107.903 18.072 107.231 17.8152C106.757 17.6573 106.283 17.4697 105.809 17.2524C105.335 17.0155 104.891 16.7489 104.476 16.4526C104.081 16.1564 103.726 15.8108 103.41 15.4159C103.114 15.0012 102.877 14.5272 102.699 13.994C102.521 13.4608 102.432 12.8388 102.432 12.1278C102.432 11.0022 102.709 10.0148 103.262 9.16565C103.815 8.29674 104.585 7.61543 105.572 7.12173C106.56 6.60829 107.685 6.35156 108.949 6.35156C109.759 6.35156 110.48 6.43056 111.112 6.58855C111.763 6.72678 112.316 6.91438 112.771 7.15135C113.244 7.36858 113.63 7.59568 113.926 7.83266C114.242 8.04988 114.469 8.23749 114.607 8.39548C115.061 8.84968 115.308 9.23477 115.348 9.55074C115.407 9.84695 115.229 10.2518 114.814 10.7652C114.4 11.2984 113.995 11.5946 113.6 11.6539C113.225 11.6934 112.8 11.5354 112.326 11.1799C112.01 10.8442 111.694 10.5776 111.378 10.3801C111.062 10.1629 110.707 10.0049 110.312 9.90619C109.937 9.80745 109.473 9.75809 108.92 9.75809C108.525 9.75809 108.14 9.81733 107.764 9.93582C107.409 10.0346 107.103 10.1925 106.846 10.4098C106.589 10.6073 106.382 10.8541 106.224 11.1503C106.086 11.4465 106.017 11.7822 106.017 12.1575C106.017 12.6709 106.155 13.0955 106.431 13.4312C106.728 13.7472 107.123 14.0138 107.616 14.231C108.11 14.4285 108.663 14.6161 109.275 14.7938C109.887 14.9715 110.509 15.1591 111.141 15.3566C111.793 15.5739 112.435 15.8306 113.067 16.1268C113.699 16.423 114.261 16.7982 114.755 17.2524C115.249 17.6869 115.644 18.2398 115.94 18.9113C116.236 19.5629 116.384 20.3627 116.384 21.3106C116.384 22.3968 116.177 23.3447 115.762 24.1543C115.348 24.964 114.785 25.6255 114.074 26.139C113.363 26.6524 112.573 27.0277 111.704 27.2646C110.835 27.5214 109.956 27.6497 109.068 27.6497Z" fill="white"/>
</svg>
